<svg width="16" height="16" viewBox="0 0 16 16" fill="none" xmlns="http://www.w3.org/2000/svg">
<g clip-path="url(#clip0_3507_52)">
<path d="M9.22058 11.0444C9.35825 11.1076 9.51335 11.1221 9.66034 11.0854C9.80732 11.0487 9.93741 10.963 10.0292 10.8424L10.2658 10.5325C10.39 10.3669 10.551 10.2325 10.7362 10.1399C10.9213 10.0474 11.1254 9.99918 11.3324 9.99918H13.3322C13.6858 9.99918 14.0249 10.1396 14.275 10.3897C14.525 10.6397 14.6654 10.9788 14.6654 11.3324V13.3322C14.6654 13.6858 14.525 14.0249 14.275 14.275C14.0249 14.525 13.6858 14.6654 13.3322 14.6654C10.1499 14.6654 7.09792 13.4013 4.84767 11.151C2.59743 8.90078 1.33325 5.8488 1.33325 2.66647C1.33325 2.31288 1.47372 1.97377 1.72374 1.72374C1.97377 1.47372 2.31288 1.33325 2.66647 1.33325H4.6663C5.01989 1.33325 5.359 1.47372 5.60903 1.72374C5.85906 1.97377 5.99952 2.31288 5.99952 2.66647V4.6663C5.99952 4.87328 5.95133 5.07741 5.85877 5.26253C5.76621 5.44766 5.63181 5.60869 5.46623 5.73288L5.15426 5.96686C5.03188 6.0603 4.94562 6.19323 4.91014 6.34306C4.87466 6.49289 4.89214 6.65038 4.95961 6.78879C5.87065 8.63921 7.36902 10.1357 9.22058 11.0444Z" stroke="#99A1AF" stroke-width="1.33322" stroke-linecap="round" stroke-linejoin="round"/>
</g>
<defs>
<clipPath id="clip0_3507_52">
<rect width="15.9986" height="15.9986" fill="white"/>
</clipPath>
</defs>
</svg>
